<svg xmlns="http://www.w3.org/2000/svg" version="1.1" xmlns:xlink="http://www.w3.org/1999/xlink" viewBox="0 0 700 700" style="overflow: hidden; display: block;" width="700" height="700"><defs></defs><g id="two-0" transform="matrix(1 0 0 1 0 0)" opacity="1"><path transform="matrix(1 0 0 1 350 350)" id="two-180" d="M 285.565757 118.285209 C 263.832511 150.742734 224.436807 169.325038 198.77451 198.77451 C 171.115406 230.515473 159.822585 278.73761 125.633711 303.306609 C 90.54121 328.524976 41.624583 351.857549 0 340.245327 C -45.688567 327.499356 -57.790237 260.867959 -96.996363 234.169933 C -125.969111 214.440486 -166.88665 215.421947 -196.195809 196.195808 C -227.777189 175.479145 -257.526396 147.220491 -276.302623 114.448293 C -295.758549 80.489744 -311.753081 38.894098 -307.398174 0 C -303.058746 -38.755848 -274.792683 -72.750581 -251.958581 -104.364662 C -231.787918 -132.291181 -198.31879 -150.764162 -179.834152 -179.834152 C -154.890081 -219.062609 -169.700794 -288.90766 -128.891376 -311.171307 C -90.77786 -331.9642 -43.409504 -284.008959 -0.000001 -284.783257 C 44.511368 -285.577208 87.361875 -324.761785 131.114001 -316.537202 C 174.305275 -308.418049 214.372331 -275.792451 240.328904 -240.328905 C 265.783712 -205.550901 264.128704 -156.024992 279.186202 -115.642712 C 293.734842 -76.625121 328.544201 -41.626168 329.683256 -0.000001 C 330.822831 41.645188 308.74502 83.66813 285.565757 118.285209 Z " fill="#F6D386" stroke="undefined" stroke-width="1" stroke-opacity="1" fill-opacity="1" visibility="visible" stroke-linecap="butt" stroke-linejoin="miter" stroke-miterlimit="4"></path></g></svg>