<svg viewBox="0 0 200 200" xmlns="http://www.w3.org/2000/svg">
  <path fill="#E3F5FF" d="M39.8,-67.9C49.9,-63.1,55.3,-49,58.4,-36.2C61.6,-23.3,62.5,-11.7,64.8,1.3C67,14.2,70.5,28.5,68.1,42.8C65.8,57.1,57.7,71.4,45.3,79.3C33,87.3,16.5,88.8,2.1,85.1C-12.3,81.5,-24.6,72.6,-38.7,65.7C-52.8,58.8,-68.7,53.9,-76,43.2C-83.3,32.6,-81.9,16.3,-79.5,1.4C-77,-13.4,-73.4,-26.9,-67.4,-39.7C-61.4,-52.6,-53,-64.9,-41.4,-68.8C-29.7,-72.7,-14.9,-68.2,0,-68.2C14.8,-68.2,29.7,-72.7,39.8,-67.9Z" transform="translate(100 100)" />
</svg>