<svg id="visual" viewBox="0 0 1900 1024" width="1900" height="1024" xmlns="http://www.w3.org/2000/svg" xmlns:xlink="http://www.w3.org/1999/xlink" version="1.1"><path d="M0 840L79.2 812C158.3 784 316.7 728 475 707.7C633.3 687.3 791.7 702.7 950 738.8C1108.3 775 1266.7 832 1425 738C1583.3 644 1741.7 399 1820.8 276.5L1900 154L1900 1025L1820.8 1025C1741.7 1025 1583.3 1025 1425 1025C1266.7 1025 1108.3 1025 950 1025C791.7 1025 633.3 1025 475 1025C316.7 1025 158.3 1025 79.2 1025L0 1025Z" fill="#fff" stroke-linecap="round" stroke-linejoin="miter"></path></svg>